<svg preserveAspectRatio="none" viewBox="192.512 626.688 1638.4 786.432" style="max-height:500px" xmlns="http://www.w3.org/2000/svg" width="2400" height="800">
  <path d="M0 0h2048v2048H0z" fill="#fff"/>
  <path d="M515.704 634.349c56.481-5.792 89.726 87.628 102.058 130.677 10.431-39.011 28.599-81.782 55.585-111.89L824.7 971.532c-22.585 93.918-50.007 120.038-99.553 198.068a881 881 0 0 0-46.647 83.68 935.3 935.3 0 0 0-58.183 154.33c-16.725-69.31-53.797-152.32-89.418-214.06-18.164-31.48-40.764-60.75-60.109-91.2-31.294-49.26-51.297-111.479-58.429-169.672-10.329-84.289-2.594-194.48 49.807-264.664 13.891-18.605 30.371-30.741 53.536-33.665" fill="#326eff"/>
  <path d="M672.207 693.745c3.094 3.536 25.982 54.362 29.926 62.646a20623 20623 0 0 1 104.851 220.992c-44.492-.435-89.835.305-134.421.385q-.705-75.442-.504-150.887c-.017-44.022-.57-89.186.148-133.136" fill="#fff"/>
  <path d="m1665.37 725.2 156.68-.089.26 86.177c-7.57.099-15.98-.88-21.76 4.316-6.56 5.901-7.3 23.76-7.35 32.355v250.691l-.02 77.41c.01 20.03-3.75 48.18 10.79 62.87l18.03.77c.59 28.2.29 57.53.39 85.82-47.43.93-97.45.16-145.07.12l-.01-86.73 30.44-.21c-1.96-132.58 1.81-267.65-1.01-399.783-2.06 8.536-3.12 15.666-4.4 24.301l-48.18 316.112c-7.33 48.04-15.88 98.23-21.79 146.26-19.03.41-38.78.23-57.87.3l-73.81-486.476c-1.53 13.519-.84 35.45-.82 49.795l-.07 83.976c-.06 87.645-.94 178.105.5 265.545l30.38.16q.36 43.35-.06 86.7c-40.29.85-83.07.07-123.58.21l-.08-86.19 1.08.04c21.7.62 26.37-2.46 27.84-25.84 1.06-16.67.4-33.93.4-50.68l-.02-96.32-.06-147.452c-.02-26.251.09-52.644-.23-78.89-.15-12.466-2.21-19.826-11.28-28.378l-17.95-.778.23-85.949c51.33-.778 104.19-.168 155.63-.193 1.05 13.783 5.03 36.805 7.06 50.905l13.96 96.754 18.81 126.215c3.36 22.056 7 51.036 11.55 72.166 4.38-34.81 11.74-75.405 17.02-110.682zm-540.08.016 153.66-.058.05 86.358c-23.25-.079-31.34-1.588-33.14 26.109-1.07 16.554-.57 33.284-.54 49.877l.08 83.621.31 267.787c23 .26 46.01.16 69.01-.28.68-32.17.17-66.26.23-98.58l67.96-.11.11 84.85v100.76c-85.04 1.03-172.15.09-257.42.12.7-27.79.15-57.7.14-85.65 13.13.3 28.34 2.54 29.9-15.24 2.7-30.79 1.53-62.73 1.53-93.74l-.02-155.776.03-94.131c0-15.738.36-32.787-.6-48.43-.52-8.301-4.37-14.657-9.88-20.636-6.85-.396-14.54-.45-21.47-.655zm-278.42.065 152.056-.152.072 86.467c-7.099.005-22.328-1.303-26.477 4.05-10.338 13.338-7.036 51.142-7.043 66.657l.031 90.434.39 265.853c21.672.6 46.241.29 67.811-.33l.12-98.27 68.22-.2.44 86.46.09 99.25c-83.92 1.33-171.566.19-255.596 0l-.057-85.56c24.22.21 29.907-.52 30.636-28.4.715-27.32.251-54.96.249-82.32l-.12-159.687.019-89.3c.022-15.847.477-33.198-.82-48.985-.616-7.498-4.482-13.586-9.426-19.098l-20.656-.541zm-647.075-.024 148.851-.213c.431 28.556.148 57.863.204 86.481-7.805-.049-19.172-1.489-24.9 4.267-3.616 3.522-4.338 8.064-4.943 12.911-2.21 17.703-1.37 36.509-1.312 54.347l.155 80.274.078 237.646c.084 9.45.064 29.31 7.485 35.84 5.42 4.76 16.114 3.4 23.322 3.29.572 16.03.077 33.89.313 50.07.121 8.32.516 27.87-.524 35.33l-148.834.06c.178-28.41.184-56.82.02-85.22 24.758.06 30.141-.47 31.116-28.79.775-22.54.238-45.49.223-68.07l.013-125.41-.014-116.861c-.007-20.494.564-41.395-.307-61.845-1.171-27.506-6.952-28.21-31.054-28.231.806-27.211.027-58.319.108-85.876"/>
</svg>
