<svg version="1.1" xmlns="http://www.w3.org/2000/svg" style="max-height: 500px" viewBox="429.326336 856.7466666666667 1194.6762239999998 329.17779104477614" preserveAspectRatio="none" width="1194.6762239999998" height="329.17779104477614">
  <g transform="matrix(1, 0, 0, 1, -13.117985, 0.000157)">
    <path fill="rgb(0,0,0)" d="M 451.56 882.987 C 489.204 883.18 526.9 882.7 564.58 883.096 L 564.51 920.796 C 541.55 922.592 541.22 924.677 540.24 936.983 C 539.47 946.626 539.86 956.344 539.88 965.995 L 539.92 1026.62 L 539.94 1079.32 C 539.96 1090.21 539.63 1101.47 541.2 1112.34 C 541.63 1115.33 545.42 1118.66 548.16 1121.34 C 553.12 1121.82 559.41 1122.01 564.53 1122.25 L 564.57 1160.97 L 451.204 1160.9 C 450.517 1148.1 450.892 1134.68 450.898 1121.84 C 466.853 1122.03 472.063 1121.01 473.424 1111.94 C 475.133 1100.56 474.72 1089.2 474.767 1077.78 L 474.896 1022.24 L 474.941 964.662 C 474.924 953.4 475.347 942.018 473.734 930.791 C 472.533 922.457 464.423 921.816 451.402 921.583 C 450.898 908.718 450.951 895.85 451.56 882.987 Z" style="stroke-width: 0.838;"/>
    <path fill="rgb(50,110,254)" d="M 686.914 863.451 C 700.46 862.971 711.16 863.307 723.239 867.392 C 751.498 876.948 771.14 903.362 778.85 920.492 C 778.9 920.293 778.96 920.092 779.02 919.892 L 779.34 918.895 C 784.84 901.399 805.08 883.461 825.59 870.382 C 869.57 918.044 912.83 965.918 955.38 1014 C 934.17 1054.51 884.67 1082.99 842.92 1117.69 C 818.24 1139.62 799.71 1157.26 780.27 1180.62 C 761.3 1158.35 740.094 1136.74 716.757 1115.88 C 672.8 1077.27 622.559 1049.43 606.792 1002.09 C 594.018 963.742 597.004 919.338 635.029 885.497 C 647.568 874.336 664.018 866.199 686.914 863.451 Z M 825.67 1015.72 C 837.01 1015 854.42 1015.28 866.17 1015.28 L 938.96 1015.32 C 938.71 1013.6 833.54 894.708 825.74 887.92 C 823.59 901.517 824.81 924.973 825.05 939.063 L 825.67 1015.72 Z" style="stroke-width: 0.838;"/>
    <path fill="rgb(0,0,0)" d="M 1187.47 883.104 C 1218.68 882.28 1274.38 882.484 1305.86 883.046 C 1305.91 895.977 1305.86 908.91 1305.6 921.841 C 1294.67 922.422 1285.52 923.162 1283.88 930.471 C 1282.21 937.902 1282.82 946.115 1282.82 953.634 L 1282.78 994.412 L 1282.71 1064 C 1282.69 1077.36 1282.32 1091.06 1283.33 1104.4 C 1283.63 1108.42 1284.23 1115.48 1289.05 1118.6 C 1293.34 1121.37 1299.07 1121.37 1305.48 1121.8 C 1305.67 1134.93 1305.69 1148.07 1305.53 1161.22 L 1199.06 1161.24 C 1198.57 1147.65 1198.4 1134.05 1198.54 1120.45 C 1205.81 1120.6 1213.75 1120.56 1221.09 1120.6 C 1220.55 1081.3 1220.42 1042 1220.6 1002.68 C 1220.6 979.41 1221.23 956.22 1218.87 932.976 C 1217.69 938.708 1216.2 943.899 1214.45 949.596 C 1212.46 961.227 1207.28 977.371 1204.16 989.247 C 1197.53 1014.21 1191.21 1039.2 1185.22 1064.2 L 1169.83 1130.98 C 1167.6 1140.08 1165.28 1152.64 1161.61 1161.19 L 1118.87 1161.2 L 1083.51 1021.77 C 1076.13 992.199 1069.19 961.576 1059.83 932.206 C 1058.84 995.082 1058.83 1057.97 1059.76 1120.85 L 1083.69 1120.99 L 1083.27 1161.17 C 1052.14 1161.37 1020.96 1160.96 989.77 1161.35 C 990.33 1148.4 989.85 1134.47 989.85 1121.42 C 1001.95 1121.31 1009.09 1121.84 1010.77 1113.92 C 1012.94 1103.68 1012.26 1093.33 1012.21 1083.01 L 1012.16 1037.07 L 1012.19 970.61 C 1012.19 958.221 1012.52 945.557 1011.43 933.191 C 1011.18 930.324 1009.85 927.296 1006.55 924.887 C 1003.09 922.357 995.72 922.573 989.77 922.374 C 989.71 916.085 988.7 886.667 990.93 882.974 C 1001.48 883.27 1017.54 882.926 1028.78 882.919 L 1107.53 882.954 C 1113.21 903.737 1117.01 925.527 1122.24 946.502 C 1130.35 978.819 1140.26 1011.41 1147.84 1043.7 C 1150.57 1028.55 1156.48 1011.07 1160.03 995.628 C 1168.65 958.245 1179.38 920.487 1187.47 883.104 Z" style="stroke-width: 0.838;"/>
    <path fill="rgb(0,0,0)" d="M 1339.85 882.901 C 1388.65 883.736 1468.57 880.355 1512.96 885.803 C 1606.41 897.895 1624.17 958.822 1626.38 994.686 C 1629.11 1039.36 1632.67 1107.66 1564.84 1143.01 C 1563.35 1143.72 1561.75 1144.42 1560.22 1145.11 C 1519.91 1162.46 1472.55 1161.29 1420.21 1161.26 L 1340.77 1161.16 C 1339.38 1149.74 1339.95 1133.15 1340.53 1121.67 C 1353.64 1121.36 1364.51 1121.75 1366.28 1114.79 C 1368.93 1104 1368.11 1093.19 1368.06 1082.34 L 1367.93 1034.31 L 1367.42 966.71 C 1367.3 954.922 1367.67 942.977 1366.38 931.217 C 1365.49 923.252 1354.63 922.147 1339.53 921.701 C 1339.16 910.108 1337.93 894.346 1339.85 882.901 Z M 1450.7 1120.92 C 1479.43 1120.92 1497.31 1121.3 1514.97 1109.94 C 1549.52 1083.03 1546.19 979.418 1526.06 946.692 C 1521.37 939.008 1511 928.786 1493.46 925.156 C 1478.29 922.02 1465.04 922.55 1448.79 922.583 C 1451.21 931.001 1450.62 942.049 1450.62 950.715 L 1450.7 993.777 C 1450.7 1035.68 1452.2 1079.23 1450.7 1120.92 Z" style="stroke-width: 0.838;"/>
  </g>
</svg>