<svg version="1.1" xmlns="http://www.w3.org/2000/svg" viewBox="0 0 2048 2048">
  <!-- Simplified heart icon for favicon - just the blue heart shape -->
  <path fill="rgb(50,110,255)" d="M 515.704 634.349 C 572.185 628.557 605.43 721.977 617.762 765.026 C 628.193 726.015 646.361 683.244 673.347 653.136 L 824.7 971.532 C 802.115 1065.45 774.693 1091.57 725.147 1169.6 C 708.09 1196.63 692.519 1224.56 678.5 1253.28 C 654.6 1302.91 635.129 1354.55 620.317 1407.61 C 603.592 1338.3 566.52 1255.29 530.899 1193.55 C 512.735 1162.07 490.135 1132.8 470.79 1102.35 C 439.496 1053.09 419.493 990.871 412.361 932.678 C 402.032 848.389 409.767 738.198 462.168 668.014 C 476.059 649.409 492.539 637.273 515.704 634.349 z"/>
  <path fill="rgb(255,255,255)" d="M 672.207 693.745 C 675.301 697.281 698.189 748.107 702.133 756.391 C 737.52 829.847 772.471 903.513 806.984 977.383 C 762.492 976.948 717.149 977.688 672.563 977.768 C 672.093 927.474 671.925 877.177 672.059 826.881 C 672.042 782.859 671.489 737.695 672.207 693.745 z"/>
</svg>
